<?xml version="1.0" encoding="UTF-8" standalone="no"?>
<!DOCTYPE svg PUBLIC "-//W3C//DTD SVG 1.1//EN"
 "http://www.w3.org/Graphics/SVG/1.1/DTD/svg11.dtd">
<!-- Generated by graphviz version 5.0.0 (20220707.1540)
 -->
<!-- Title: dependencies Pages: 1 -->
<svg width="1731pt" height="247pt"
 viewBox="0.00 0.00 1731.00 246.80" xmlns="http://www.w3.org/2000/svg" xmlns:xlink="http://www.w3.org/1999/xlink">
<g id="graph0" class="graph" transform="scale(1 1) rotate(0) translate(4 242.8)">
<title>dependencies</title>
<polygon fill="white" stroke="transparent" points="-4,4 -4,-242.8 1727,-242.8 1727,4 -4,4"/>
<text text-anchor="middle" x="861.5" y="-8.2" font-family="sans-serif" font-size="14.00">dependencies</text>
<g id="clust1" class="cluster">
<title>cluster_AppModule</title>
<polygon fill="none" stroke="black" stroke-dasharray="1,5" points="8,-32.8 8,-230.8 1715,-230.8 1715,-32.8 8,-32.8"/>
</g>
<g id="clust13" class="cluster">
<title>cluster_AppModule_bootstrap</title>
<polygon fill="none" stroke="black" points="765,-170.8 765,-222.8 889,-222.8 889,-170.8 765,-170.8"/>
</g>
<g id="clust14" class="cluster">
<title>cluster_AppModule_providers</title>
<polygon fill="none" stroke="black" points="1559,-40.8 1559,-92.8 1707,-92.8 1707,-40.8 1559,-40.8"/>
</g>
<g id="clust2" class="cluster">
<title>cluster_AppModule_declarations</title>
<polygon fill="none" stroke="black" points="330,-40.8 330,-92.8 1551,-92.8 1551,-40.8 330,-40.8"/>
</g>
<g id="clust11" class="cluster">
<title>cluster_AppModule_imports</title>
<polygon fill="none" stroke="black" points="16,-40.8 16,-92.8 322,-92.8 322,-40.8 16,-40.8"/>
</g>
<!-- AppComponent -->
<g id="node1" class="node">
<title>AppComponent</title>
<polygon fill="#ffffb3" stroke="black" points="1542.94,-84.8 1437.06,-84.8 1437.06,-48.8 1542.94,-48.8 1542.94,-84.8"/>
<text text-anchor="middle" x="1490" y="-62.6" font-family="Times,serif" font-size="14.00">AppComponent</text>
</g>
<!-- AppModule -->
<g id="node9" class="node">
<title>AppModule</title>
<polygon fill="#8dd3c7" stroke="black" points="868.66,-149.8 865.66,-153.8 844.66,-153.8 841.66,-149.8 785.34,-149.8 785.34,-113.8 868.66,-113.8 868.66,-149.8"/>
<text text-anchor="middle" x="827" y="-127.6" font-family="Times,serif" font-size="14.00">AppModule</text>
</g>
<!-- AppComponent&#45;&gt;AppModule -->
<g id="edge1" class="edge">
<title>AppComponent&#45;&gt;AppModule</title>
<path fill="none" stroke="black" d="M1490,-85.08C1490,-106.12 1490,-137.8 1490,-137.8 1490,-137.8 878.72,-137.8 878.72,-137.8"/>
<polygon fill="black" stroke="black" points="878.72,-134.3 868.72,-137.8 878.72,-141.3 878.72,-134.3"/>
</g>
<!-- HeaderComponent -->
<g id="node2" class="node">
<title>HeaderComponent</title>
<polygon fill="#ffffb3" stroke="black" points="1418.75,-84.8 1297.25,-84.8 1297.25,-48.8 1418.75,-48.8 1418.75,-84.8"/>
<text text-anchor="middle" x="1358" y="-62.6" font-family="Times,serif" font-size="14.00">HeaderComponent</text>
</g>
<!-- HeaderComponent&#45;&gt;AppModule -->
<g id="edge2" class="edge">
<title>HeaderComponent&#45;&gt;AppModule</title>
<path fill="none" stroke="black" d="M1358,-84.91C1358,-104.14 1358,-131.8 1358,-131.8 1358,-131.8 878.67,-131.8 878.67,-131.8"/>
<polygon fill="black" stroke="black" points="878.67,-128.3 868.67,-131.8 878.67,-135.3 878.67,-128.3"/>
</g>
<!-- InscrptionComponent -->
<g id="node3" class="node">
<title>InscrptionComponent</title>
<polygon fill="#ffffb3" stroke="black" points="1279.1,-84.8 1140.9,-84.8 1140.9,-48.8 1279.1,-48.8 1279.1,-84.8"/>
<text text-anchor="middle" x="1210" y="-62.6" font-family="Times,serif" font-size="14.00">InscrptionComponent</text>
</g>
<!-- InscrptionComponent&#45;&gt;AppModule -->
<g id="edge3" class="edge">
<title>InscrptionComponent&#45;&gt;AppModule</title>
<path fill="none" stroke="black" d="M1210,-84.82C1210,-102.17 1210,-125.8 1210,-125.8 1210,-125.8 878.72,-125.8 878.72,-125.8"/>
<polygon fill="black" stroke="black" points="878.72,-122.3 868.72,-125.8 878.72,-129.3 878.72,-122.3"/>
</g>
<!-- LoginComponent -->
<g id="node4" class="node">
<title>LoginComponent</title>
<polygon fill="#ffffb3" stroke="black" points="1123.27,-84.8 1008.73,-84.8 1008.73,-48.8 1123.27,-48.8 1123.27,-84.8"/>
<text text-anchor="middle" x="1066" y="-62.6" font-family="Times,serif" font-size="14.00">LoginComponent</text>
</g>
<!-- LoginComponent&#45;&gt;AppModule -->
<g id="edge4" class="edge">
<title>LoginComponent&#45;&gt;AppModule</title>
<path fill="none" stroke="black" d="M1066,-85.04C1066,-100.37 1066,-119.8 1066,-119.8 1066,-119.8 878.9,-119.8 878.9,-119.8"/>
<polygon fill="black" stroke="black" points="878.9,-116.3 868.9,-119.8 878.9,-123.3 878.9,-116.3"/>
</g>
<!-- ModificationComponent -->
<g id="node5" class="node">
<title>ModificationComponent</title>
<polygon fill="#ffffb3" stroke="black" points="990.43,-84.8 835.57,-84.8 835.57,-48.8 990.43,-48.8 990.43,-84.8"/>
<text text-anchor="middle" x="913" y="-62.6" font-family="Times,serif" font-size="14.00">ModificationComponent</text>
</g>
<!-- ModificationComponent&#45;&gt;AppModule -->
<g id="edge5" class="edge">
<title>ModificationComponent&#45;&gt;AppModule</title>
<path fill="none" stroke="black" d="M852.31,-84.91C852.31,-84.91 852.31,-103.79 852.31,-103.79"/>
<polygon fill="black" stroke="black" points="848.81,-103.79 852.31,-113.79 855.81,-103.79 848.81,-103.79"/>
</g>
<!-- PageArchiveComponent -->
<g id="node6" class="node">
<title>PageArchiveComponent</title>
<polygon fill="#ffffb3" stroke="black" points="817.64,-84.8 664.36,-84.8 664.36,-48.8 817.64,-48.8 817.64,-84.8"/>
<text text-anchor="middle" x="741" y="-62.6" font-family="Times,serif" font-size="14.00">PageArchiveComponent</text>
</g>
<!-- PageArchiveComponent&#45;&gt;AppModule -->
<g id="edge6" class="edge">
<title>PageArchiveComponent&#45;&gt;AppModule</title>
<path fill="none" stroke="black" d="M801.49,-84.91C801.49,-84.91 801.49,-103.79 801.49,-103.79"/>
<polygon fill="black" stroke="black" points="797.99,-103.79 801.49,-113.79 804.99,-103.79 797.99,-103.79"/>
</g>
<!-- SimpleusersComponent -->
<g id="node7" class="node">
<title>SimpleusersComponent</title>
<polygon fill="#ffffb3" stroke="black" points="645.77,-84.8 496.23,-84.8 496.23,-48.8 645.77,-48.8 645.77,-84.8"/>
<text text-anchor="middle" x="571" y="-62.6" font-family="Times,serif" font-size="14.00">SimpleusersComponent</text>
</g>
<!-- SimpleusersComponent&#45;&gt;AppModule -->
<g id="edge7" class="edge">
<title>SimpleusersComponent&#45;&gt;AppModule</title>
<path fill="none" stroke="black" d="M571,-85.04C571,-100.37 571,-119.8 571,-119.8 571,-119.8 775.3,-119.8 775.3,-119.8"/>
<polygon fill="black" stroke="black" points="775.3,-123.3 785.3,-119.8 775.3,-116.3 775.3,-123.3"/>
</g>
<!-- UtilisateurComponent -->
<g id="node8" class="node">
<title>UtilisateurComponent</title>
<polygon fill="#ffffb3" stroke="black" points="478.43,-84.8 337.57,-84.8 337.57,-48.8 478.43,-48.8 478.43,-84.8"/>
<text text-anchor="middle" x="408" y="-62.6" font-family="Times,serif" font-size="14.00">UtilisateurComponent</text>
</g>
<!-- UtilisateurComponent&#45;&gt;AppModule -->
<g id="edge8" class="edge">
<title>UtilisateurComponent&#45;&gt;AppModule</title>
<path fill="none" stroke="black" d="M408,-84.82C408,-102.17 408,-125.8 408,-125.8 408,-125.8 775.29,-125.8 775.29,-125.8"/>
<polygon fill="black" stroke="black" points="775.29,-129.3 785.29,-125.8 775.29,-122.3 775.29,-129.3"/>
</g>
<!-- AppComponent  -->
<g id="node13" class="node">
<title>AppComponent </title>
<polygon fill="#80b1d3" stroke="black" points="881.44,-214.8 772.56,-214.8 772.56,-178.8 881.44,-178.8 881.44,-214.8"/>
<text text-anchor="middle" x="827" y="-192.6" font-family="Times,serif" font-size="14.00">AppComponent </text>
</g>
<!-- AppModule&#45;&gt;AppComponent  -->
<g id="edge12" class="edge">
<title>AppModule&#45;&gt;AppComponent </title>
<path fill="none" stroke="black" stroke-dasharray="1,5" d="M827,-149.91C827,-149.91 827,-168.79 827,-168.79"/>
<polygon fill="black" stroke="black" points="823.5,-168.79 827,-178.79 830.5,-168.79 823.5,-168.79"/>
</g>
<!-- AppRoutingModule -->
<g id="node10" class="node">
<title>AppRoutingModule</title>
<polygon fill="#8dd3c7" stroke="black" points="314.28,-84.8 311.28,-88.8 290.28,-88.8 287.28,-84.8 185.72,-84.8 185.72,-48.8 314.28,-48.8 314.28,-84.8"/>
<text text-anchor="middle" x="250" y="-62.6" font-family="Times,serif" font-size="14.00">AppRoutingModule</text>
</g>
<!-- AppRoutingModule&#45;&gt;AppModule -->
<g id="edge9" class="edge">
<title>AppRoutingModule&#45;&gt;AppModule</title>
<path fill="none" stroke="black" d="M250,-84.91C250,-104.14 250,-131.8 250,-131.8 250,-131.8 775.04,-131.8 775.04,-131.8"/>
<polygon fill="black" stroke="black" points="775.04,-135.3 785.04,-131.8 775.04,-128.3 775.04,-135.3"/>
</g>
<!-- NgClass -->
<g id="node11" class="node">
<title>NgClass</title>
<polygon fill="#8dd3c7" stroke="black" points="167.95,-84.8 164.95,-88.8 143.95,-88.8 140.95,-84.8 104.05,-84.8 104.05,-48.8 167.95,-48.8 167.95,-84.8"/>
<text text-anchor="middle" x="136" y="-62.6" font-family="Times,serif" font-size="14.00">NgClass</text>
</g>
<!-- NgClass&#45;&gt;AppModule -->
<g id="edge10" class="edge">
<title>NgClass&#45;&gt;AppModule</title>
<path fill="none" stroke="black" d="M136,-85.08C136,-106.12 136,-137.8 136,-137.8 136,-137.8 775.33,-137.8 775.33,-137.8"/>
<polygon fill="black" stroke="black" points="775.33,-141.3 785.33,-137.8 775.33,-134.3 775.33,-141.3"/>
</g>
<!-- NgStyle -->
<g id="node12" class="node">
<title>NgStyle</title>
<polygon fill="#8dd3c7" stroke="black" points="85.89,-84.8 82.89,-88.8 61.89,-88.8 58.89,-84.8 24.11,-84.8 24.11,-48.8 85.89,-48.8 85.89,-84.8"/>
<text text-anchor="middle" x="55" y="-62.6" font-family="Times,serif" font-size="14.00">NgStyle</text>
</g>
<!-- NgStyle&#45;&gt;AppModule -->
<g id="edge11" class="edge">
<title>NgStyle&#45;&gt;AppModule</title>
<path fill="none" stroke="black" d="M55,-85.05C55,-107.82 55,-143.8 55,-143.8 55,-143.8 775.22,-143.8 775.22,-143.8"/>
<polygon fill="black" stroke="black" points="775.22,-147.3 785.22,-143.8 775.22,-140.3 775.22,-147.3"/>
</g>
<!-- HelperService -->
<g id="node14" class="node">
<title>HelperService</title>
<ellipse fill="#fdb462" stroke="black" cx="1633" cy="-66.8" rx="66.03" ry="18"/>
<text text-anchor="middle" x="1633" y="-62.6" font-family="Times,serif" font-size="14.00">HelperService</text>
</g>
<!-- HelperService&#45;&gt;AppModule -->
<g id="edge13" class="edge">
<title>HelperService&#45;&gt;AppModule</title>
<path fill="none" stroke="black" d="M1633,-85.05C1633,-107.82 1633,-143.8 1633,-143.8 1633,-143.8 878.92,-143.8 878.92,-143.8"/>
<polygon fill="black" stroke="black" points="878.92,-140.3 868.92,-143.8 878.92,-147.3 878.92,-140.3"/>
</g>
</g>
</svg>
