<?xml version="1.0" encoding="UTF-8" standalone="no"?>
<!DOCTYPE svg PUBLIC "-//W3C//DTD SVG 1.1//EN"
 "http://www.w3.org/Graphics/SVG/1.1/DTD/svg11.dtd">
<!-- Generated by graphviz version 5.0.0 (20220707.1540)
 -->
<!-- Title: dependencies Pages: 1 -->
<svg width="1861pt" height="247pt"
 viewBox="0.00 0.00 1861.00 246.80" xmlns="http://www.w3.org/2000/svg" xmlns:xlink="http://www.w3.org/1999/xlink">
<g id="graph0" class="graph" transform="scale(1 1) rotate(0) translate(4 242.8)">
<title>dependencies</title>
<polygon fill="white" stroke="transparent" points="-4,4 -4,-242.8 1857,-242.8 1857,4 -4,4"/>
<text text-anchor="middle" x="926.5" y="-8.2" font-family="sans-serif" font-size="14.00">dependencies</text>
<g id="clust1" class="cluster">
<title>cluster_AppModule</title>
<polygon fill="none" stroke="black" stroke-dasharray="1,5" points="8,-32.8 8,-230.8 1845,-230.8 1845,-32.8 8,-32.8"/>
</g>
<g id="clust15" class="cluster">
<title>cluster_AppModule_providers</title>
<polygon fill="none" stroke="black" points="1689,-40.8 1689,-92.8 1837,-92.8 1837,-40.8 1689,-40.8"/>
</g>
<g id="clust12" class="cluster">
<title>cluster_AppModule_imports</title>
<polygon fill="none" stroke="black" points="1375,-40.8 1375,-92.8 1681,-92.8 1681,-40.8 1375,-40.8"/>
</g>
<g id="clust14" class="cluster">
<title>cluster_AppModule_bootstrap</title>
<polygon fill="none" stroke="black" points="964,-170.8 964,-222.8 1088,-222.8 1088,-170.8 964,-170.8"/>
</g>
<g id="clust2" class="cluster">
<title>cluster_AppModule_declarations</title>
<polygon fill="none" stroke="black" points="16,-40.8 16,-92.8 1367,-92.8 1367,-40.8 16,-40.8"/>
</g>
<!-- AppComponent -->
<g id="node1" class="node">
<title>AppComponent</title>
<polygon fill="#ffffb3" stroke="black" points="1358.94,-84.8 1253.06,-84.8 1253.06,-48.8 1358.94,-48.8 1358.94,-84.8"/>
<text text-anchor="middle" x="1306" y="-62.6" font-family="Times,serif" font-size="14.00">AppComponent</text>
</g>
<!-- AppModule -->
<g id="node10" class="node">
<title>AppModule</title>
<polygon fill="#8dd3c7" stroke="black" points="1067.66,-149.8 1064.66,-153.8 1043.66,-153.8 1040.66,-149.8 984.34,-149.8 984.34,-113.8 1067.66,-113.8 1067.66,-149.8"/>
<text text-anchor="middle" x="1026" y="-127.6" font-family="Times,serif" font-size="14.00">AppModule</text>
</g>
<!-- AppComponent&#45;&gt;AppModule -->
<g id="edge1" class="edge">
<title>AppComponent&#45;&gt;AppModule</title>
<path fill="none" stroke="black" d="M1306,-84.83C1306,-101.86 1306,-124.8 1306,-124.8 1306,-124.8 1077.92,-124.8 1077.92,-124.8"/>
<polygon fill="black" stroke="black" points="1077.92,-121.3 1067.92,-124.8 1077.92,-128.3 1077.92,-121.3"/>
</g>
<!-- HeaderComponent -->
<g id="node2" class="node">
<title>HeaderComponent</title>
<polygon fill="#ffffb3" stroke="black" points="1234.75,-84.8 1113.25,-84.8 1113.25,-48.8 1234.75,-48.8 1234.75,-84.8"/>
<text text-anchor="middle" x="1174" y="-62.6" font-family="Times,serif" font-size="14.00">HeaderComponent</text>
</g>
<!-- HeaderComponent&#45;&gt;AppModule -->
<g id="edge2" class="edge">
<title>HeaderComponent&#45;&gt;AppModule</title>
<path fill="none" stroke="black" d="M1174,-85.04C1174,-100.37 1174,-119.8 1174,-119.8 1174,-119.8 1078.01,-119.8 1078.01,-119.8"/>
<polygon fill="black" stroke="black" points="1078.02,-116.3 1068.01,-119.8 1078.01,-123.3 1078.02,-116.3"/>
</g>
<!-- InscrptionComponent -->
<g id="node3" class="node">
<title>InscrptionComponent</title>
<polygon fill="#ffffb3" stroke="black" points="1095.1,-84.8 956.9,-84.8 956.9,-48.8 1095.1,-48.8 1095.1,-84.8"/>
<text text-anchor="middle" x="1026" y="-62.6" font-family="Times,serif" font-size="14.00">InscrptionComponent</text>
</g>
<!-- InscrptionComponent&#45;&gt;AppModule -->
<g id="edge3" class="edge">
<title>InscrptionComponent&#45;&gt;AppModule</title>
<path fill="none" stroke="black" d="M1026,-84.91C1026,-84.91 1026,-103.79 1026,-103.79"/>
<polygon fill="black" stroke="black" points="1022.5,-103.79 1026,-113.79 1029.5,-103.79 1022.5,-103.79"/>
</g>
<!-- LoginComponent -->
<g id="node4" class="node">
<title>LoginComponent</title>
<polygon fill="#ffffb3" stroke="black" points="939.27,-84.8 824.73,-84.8 824.73,-48.8 939.27,-48.8 939.27,-84.8"/>
<text text-anchor="middle" x="882" y="-62.6" font-family="Times,serif" font-size="14.00">LoginComponent</text>
</g>
<!-- LoginComponent&#45;&gt;AppModule -->
<g id="edge4" class="edge">
<title>LoginComponent&#45;&gt;AppModule</title>
<path fill="none" stroke="black" d="M882,-85.04C882,-100.37 882,-119.8 882,-119.8 882,-119.8 973.96,-119.8 973.96,-119.8"/>
<polygon fill="black" stroke="black" points="973.96,-123.3 983.96,-119.8 973.96,-116.3 973.96,-123.3"/>
</g>
<!-- ModificationComponent -->
<g id="node5" class="node">
<title>ModificationComponent</title>
<polygon fill="#ffffb3" stroke="black" points="806.43,-84.8 651.57,-84.8 651.57,-48.8 806.43,-48.8 806.43,-84.8"/>
<text text-anchor="middle" x="729" y="-62.6" font-family="Times,serif" font-size="14.00">ModificationComponent</text>
</g>
<!-- ModificationComponent&#45;&gt;AppModule -->
<g id="edge5" class="edge">
<title>ModificationComponent&#45;&gt;AppModule</title>
<path fill="none" stroke="black" d="M729,-84.83C729,-101.86 729,-124.8 729,-124.8 729,-124.8 974.08,-124.8 974.08,-124.8"/>
<polygon fill="black" stroke="black" points="974.08,-128.3 984.08,-124.8 974.08,-121.3 974.08,-128.3"/>
</g>
<!-- PageArchiveComponent -->
<g id="node6" class="node">
<title>PageArchiveComponent</title>
<polygon fill="#ffffb3" stroke="black" points="633.64,-84.8 480.36,-84.8 480.36,-48.8 633.64,-48.8 633.64,-84.8"/>
<text text-anchor="middle" x="557" y="-62.6" font-family="Times,serif" font-size="14.00">PageArchiveComponent</text>
</g>
<!-- PageArchiveComponent&#45;&gt;AppModule -->
<g id="edge6" class="edge">
<title>PageArchiveComponent&#45;&gt;AppModule</title>
<path fill="none" stroke="black" d="M557,-85.02C557,-103.63 557,-129.8 557,-129.8 557,-129.8 973.97,-129.8 973.97,-129.8"/>
<polygon fill="black" stroke="black" points="973.97,-133.3 983.97,-129.8 973.97,-126.3 973.97,-133.3"/>
</g>
<!-- ProfilComponent -->
<g id="node7" class="node">
<title>ProfilComponent</title>
<polygon fill="#ffffb3" stroke="black" points="462.72,-84.8 349.28,-84.8 349.28,-48.8 462.72,-48.8 462.72,-84.8"/>
<text text-anchor="middle" x="406" y="-62.6" font-family="Times,serif" font-size="14.00">ProfilComponent</text>
</g>
<!-- ProfilComponent&#45;&gt;AppModule -->
<g id="edge7" class="edge">
<title>ProfilComponent&#45;&gt;AppModule</title>
<path fill="none" stroke="black" d="M406,-85.02C406,-105.17 406,-134.8 406,-134.8 406,-134.8 973.87,-134.8 973.87,-134.8"/>
<polygon fill="black" stroke="black" points="973.87,-138.3 983.87,-134.8 973.87,-131.3 973.87,-138.3"/>
</g>
<!-- SimpleusersComponent -->
<g id="node8" class="node">
<title>SimpleusersComponent</title>
<polygon fill="#ffffb3" stroke="black" points="331.77,-84.8 182.23,-84.8 182.23,-48.8 331.77,-48.8 331.77,-84.8"/>
<text text-anchor="middle" x="257" y="-62.6" font-family="Times,serif" font-size="14.00">SimpleusersComponent</text>
</g>
<!-- SimpleusersComponent&#45;&gt;AppModule -->
<g id="edge8" class="edge">
<title>SimpleusersComponent&#45;&gt;AppModule</title>
<path fill="none" stroke="black" d="M257,-84.84C257,-106.46 257,-139.8 257,-139.8 257,-139.8 974.11,-139.8 974.11,-139.8"/>
<polygon fill="black" stroke="black" points="974.11,-143.3 984.11,-139.8 974.11,-136.3 974.11,-143.3"/>
</g>
<!-- UtilisateurComponent -->
<g id="node9" class="node">
<title>UtilisateurComponent</title>
<polygon fill="#ffffb3" stroke="black" points="164.43,-84.8 23.57,-84.8 23.57,-48.8 164.43,-48.8 164.43,-84.8"/>
<text text-anchor="middle" x="94" y="-62.6" font-family="Times,serif" font-size="14.00">UtilisateurComponent</text>
</g>
<!-- UtilisateurComponent&#45;&gt;AppModule -->
<g id="edge9" class="edge">
<title>UtilisateurComponent&#45;&gt;AppModule</title>
<path fill="none" stroke="black" d="M94,-84.89C94,-107.93 94,-144.8 94,-144.8 94,-144.8 974.14,-144.8 974.14,-144.8"/>
<polygon fill="black" stroke="black" points="974.14,-148.3 984.14,-144.8 974.14,-141.3 974.14,-148.3"/>
</g>
<!-- AppComponent  -->
<g id="node14" class="node">
<title>AppComponent </title>
<polygon fill="#80b1d3" stroke="black" points="1080.44,-214.8 971.56,-214.8 971.56,-178.8 1080.44,-178.8 1080.44,-214.8"/>
<text text-anchor="middle" x="1026" y="-192.6" font-family="Times,serif" font-size="14.00">AppComponent </text>
</g>
<!-- AppModule&#45;&gt;AppComponent  -->
<g id="edge13" class="edge">
<title>AppModule&#45;&gt;AppComponent </title>
<path fill="none" stroke="black" stroke-dasharray="1,5" d="M1026,-149.91C1026,-149.91 1026,-168.79 1026,-168.79"/>
<polygon fill="black" stroke="black" points="1022.5,-168.79 1026,-178.79 1029.5,-168.79 1022.5,-168.79"/>
</g>
<!-- AppRoutingModule -->
<g id="node11" class="node">
<title>AppRoutingModule</title>
<polygon fill="#8dd3c7" stroke="black" points="1673.28,-84.8 1670.28,-88.8 1649.28,-88.8 1646.28,-84.8 1544.72,-84.8 1544.72,-48.8 1673.28,-48.8 1673.28,-84.8"/>
<text text-anchor="middle" x="1609" y="-62.6" font-family="Times,serif" font-size="14.00">AppRoutingModule</text>
</g>
<!-- AppRoutingModule&#45;&gt;AppModule -->
<g id="edge10" class="edge">
<title>AppRoutingModule&#45;&gt;AppModule</title>
<path fill="none" stroke="black" d="M1609,-84.84C1609,-106.46 1609,-139.8 1609,-139.8 1609,-139.8 1077.93,-139.8 1077.93,-139.8"/>
<polygon fill="black" stroke="black" points="1077.93,-136.3 1067.93,-139.8 1077.93,-143.3 1077.93,-136.3"/>
</g>
<!-- NgClass -->
<g id="node12" class="node">
<title>NgClass</title>
<polygon fill="#8dd3c7" stroke="black" points="1526.95,-84.8 1523.95,-88.8 1502.95,-88.8 1499.95,-84.8 1463.05,-84.8 1463.05,-48.8 1526.95,-48.8 1526.95,-84.8"/>
<text text-anchor="middle" x="1495" y="-62.6" font-family="Times,serif" font-size="14.00">NgClass</text>
</g>
<!-- NgClass&#45;&gt;AppModule -->
<g id="edge11" class="edge">
<title>NgClass&#45;&gt;AppModule</title>
<path fill="none" stroke="black" d="M1495,-85.02C1495,-105.17 1495,-134.8 1495,-134.8 1495,-134.8 1078.03,-134.8 1078.03,-134.8"/>
<polygon fill="black" stroke="black" points="1078.03,-131.3 1068.03,-134.8 1078.03,-138.3 1078.03,-131.3"/>
</g>
<!-- NgStyle -->
<g id="node13" class="node">
<title>NgStyle</title>
<polygon fill="#8dd3c7" stroke="black" points="1444.89,-84.8 1441.89,-88.8 1420.89,-88.8 1417.89,-84.8 1383.11,-84.8 1383.11,-48.8 1444.89,-48.8 1444.89,-84.8"/>
<text text-anchor="middle" x="1414" y="-62.6" font-family="Times,serif" font-size="14.00">NgStyle</text>
</g>
<!-- NgStyle&#45;&gt;AppModule -->
<g id="edge12" class="edge">
<title>NgStyle&#45;&gt;AppModule</title>
<path fill="none" stroke="black" d="M1414,-85.02C1414,-103.63 1414,-129.8 1414,-129.8 1414,-129.8 1077.89,-129.8 1077.89,-129.8"/>
<polygon fill="black" stroke="black" points="1077.89,-126.3 1067.89,-129.8 1077.89,-133.3 1077.89,-126.3"/>
</g>
<!-- HelperService -->
<g id="node15" class="node">
<title>HelperService</title>
<ellipse fill="#fdb462" stroke="black" cx="1763" cy="-66.8" rx="66.03" ry="18"/>
<text text-anchor="middle" x="1763" y="-62.6" font-family="Times,serif" font-size="14.00">HelperService</text>
</g>
<!-- HelperService&#45;&gt;AppModule -->
<g id="edge14" class="edge">
<title>HelperService&#45;&gt;AppModule</title>
<path fill="none" stroke="black" d="M1763,-84.89C1763,-107.93 1763,-144.8 1763,-144.8 1763,-144.8 1077.74,-144.8 1077.74,-144.8"/>
<polygon fill="black" stroke="black" points="1077.74,-141.3 1067.74,-144.8 1077.74,-148.3 1077.74,-141.3"/>
</g>
</g>
</svg>
