<?xml version="1.0" encoding="UTF-8" standalone="no"?>
<!DOCTYPE svg PUBLIC "-//W3C//DTD SVG 1.1//EN"
 "http://www.w3.org/Graphics/SVG/1.1/DTD/svg11.dtd">
<!-- Generated by graphviz version 5.0.0 (20220707.1540)
 -->
<!-- Title: dependencies Pages: 1 -->
<svg width="1731pt" height="247pt"
 viewBox="0.00 0.00 1731.00 246.80" xmlns="http://www.w3.org/2000/svg" xmlns:xlink="http://www.w3.org/1999/xlink">
<g id="graph0" class="graph" transform="scale(1 1) rotate(0) translate(4 242.8)">
<title>dependencies</title>
<polygon fill="white" stroke="transparent" points="-4,4 -4,-242.8 1727,-242.8 1727,4 -4,4"/>
<text text-anchor="middle" x="861.5" y="-8.2" font-family="sans-serif" font-size="14.00">dependencies</text>
<g id="clust1" class="cluster">
<title>cluster_AppModule</title>
<polygon fill="none" stroke="black" stroke-dasharray="1,5" points="8,-32.8 8,-230.8 1715,-230.8 1715,-32.8 8,-32.8"/>
</g>
<g id="clust2" class="cluster">
<title>cluster_AppModule_declarations</title>
<polygon fill="none" stroke="black" points="486,-40.8 486,-92.8 1707,-92.8 1707,-40.8 486,-40.8"/>
</g>
<g id="clust11" class="cluster">
<title>cluster_AppModule_imports</title>
<polygon fill="none" stroke="black" points="172,-40.8 172,-92.8 478,-92.8 478,-40.8 172,-40.8"/>
</g>
<g id="clust13" class="cluster">
<title>cluster_AppModule_bootstrap</title>
<polygon fill="none" stroke="black" points="750,-170.8 750,-222.8 874,-222.8 874,-170.8 750,-170.8"/>
</g>
<g id="clust14" class="cluster">
<title>cluster_AppModule_providers</title>
<polygon fill="none" stroke="black" points="16,-40.8 16,-92.8 164,-92.8 164,-40.8 16,-40.8"/>
</g>
<!-- AppComponent -->
<g id="node1" class="node">
<title>AppComponent</title>
<polygon fill="#ffffb3" stroke="black" points="1698.94,-84.8 1593.06,-84.8 1593.06,-48.8 1698.94,-48.8 1698.94,-84.8"/>
<text text-anchor="middle" x="1646" y="-62.6" font-family="Times,serif" font-size="14.00">AppComponent</text>
</g>
<!-- AppModule -->
<g id="node9" class="node">
<title>AppModule</title>
<polygon fill="#8dd3c7" stroke="black" points="853.66,-149.8 850.66,-153.8 829.66,-153.8 826.66,-149.8 770.34,-149.8 770.34,-113.8 853.66,-113.8 853.66,-149.8"/>
<text text-anchor="middle" x="812" y="-127.6" font-family="Times,serif" font-size="14.00">AppModule</text>
</g>
<!-- AppComponent&#45;&gt;AppModule -->
<g id="edge1" class="edge">
<title>AppComponent&#45;&gt;AppModule</title>
<path fill="none" stroke="black" d="M1646,-85.05C1646,-107.82 1646,-143.8 1646,-143.8 1646,-143.8 863.93,-143.8 863.93,-143.8"/>
<polygon fill="black" stroke="black" points="863.93,-140.3 853.93,-143.8 863.93,-147.3 863.93,-140.3"/>
</g>
<!-- HeaderComponent -->
<g id="node2" class="node">
<title>HeaderComponent</title>
<polygon fill="#ffffb3" stroke="black" points="1574.75,-84.8 1453.25,-84.8 1453.25,-48.8 1574.75,-48.8 1574.75,-84.8"/>
<text text-anchor="middle" x="1514" y="-62.6" font-family="Times,serif" font-size="14.00">HeaderComponent</text>
</g>
<!-- HeaderComponent&#45;&gt;AppModule -->
<g id="edge2" class="edge">
<title>HeaderComponent&#45;&gt;AppModule</title>
<path fill="none" stroke="black" d="M1514,-85.08C1514,-106.12 1514,-137.8 1514,-137.8 1514,-137.8 863.81,-137.8 863.81,-137.8"/>
<polygon fill="black" stroke="black" points="863.81,-134.3 853.81,-137.8 863.81,-141.3 863.81,-134.3"/>
</g>
<!-- InscrptionComponent -->
<g id="node3" class="node">
<title>InscrptionComponent</title>
<polygon fill="#ffffb3" stroke="black" points="1435.1,-84.8 1296.9,-84.8 1296.9,-48.8 1435.1,-48.8 1435.1,-84.8"/>
<text text-anchor="middle" x="1366" y="-62.6" font-family="Times,serif" font-size="14.00">InscrptionComponent</text>
</g>
<!-- InscrptionComponent&#45;&gt;AppModule -->
<g id="edge3" class="edge">
<title>InscrptionComponent&#45;&gt;AppModule</title>
<path fill="none" stroke="black" d="M1366,-84.91C1366,-104.14 1366,-131.8 1366,-131.8 1366,-131.8 864.09,-131.8 864.09,-131.8"/>
<polygon fill="black" stroke="black" points="864.09,-128.3 854.09,-131.8 864.09,-135.3 864.09,-128.3"/>
</g>
<!-- LoginComponent -->
<g id="node4" class="node">
<title>LoginComponent</title>
<polygon fill="#ffffb3" stroke="black" points="1279.27,-84.8 1164.73,-84.8 1164.73,-48.8 1279.27,-48.8 1279.27,-84.8"/>
<text text-anchor="middle" x="1222" y="-62.6" font-family="Times,serif" font-size="14.00">LoginComponent</text>
</g>
<!-- LoginComponent&#45;&gt;AppModule -->
<g id="edge4" class="edge">
<title>LoginComponent&#45;&gt;AppModule</title>
<path fill="none" stroke="black" d="M1222,-84.82C1222,-102.17 1222,-125.8 1222,-125.8 1222,-125.8 863.95,-125.8 863.95,-125.8"/>
<polygon fill="black" stroke="black" points="863.95,-122.3 853.95,-125.8 863.95,-129.3 863.95,-122.3"/>
</g>
<!-- ModificationComponent -->
<g id="node5" class="node">
<title>ModificationComponent</title>
<polygon fill="#ffffb3" stroke="black" points="1146.43,-84.8 991.57,-84.8 991.57,-48.8 1146.43,-48.8 1146.43,-84.8"/>
<text text-anchor="middle" x="1069" y="-62.6" font-family="Times,serif" font-size="14.00">ModificationComponent</text>
</g>
<!-- ModificationComponent&#45;&gt;AppModule -->
<g id="edge5" class="edge">
<title>ModificationComponent&#45;&gt;AppModule</title>
<path fill="none" stroke="black" d="M1069,-85.04C1069,-100.37 1069,-119.8 1069,-119.8 1069,-119.8 863.86,-119.8 863.86,-119.8"/>
<polygon fill="black" stroke="black" points="863.86,-116.3 853.86,-119.8 863.86,-123.3 863.86,-116.3"/>
</g>
<!-- PageArchiveComponent -->
<g id="node6" class="node">
<title>PageArchiveComponent</title>
<polygon fill="#ffffb3" stroke="black" points="973.64,-84.8 820.36,-84.8 820.36,-48.8 973.64,-48.8 973.64,-84.8"/>
<text text-anchor="middle" x="897" y="-62.6" font-family="Times,serif" font-size="14.00">PageArchiveComponent</text>
</g>
<!-- PageArchiveComponent&#45;&gt;AppModule -->
<g id="edge6" class="edge">
<title>PageArchiveComponent&#45;&gt;AppModule</title>
<path fill="none" stroke="black" d="M837.01,-84.91C837.01,-84.91 837.01,-103.79 837.01,-103.79"/>
<polygon fill="black" stroke="black" points="833.51,-103.79 837.01,-113.79 840.51,-103.79 833.51,-103.79"/>
</g>
<!-- SimpleusersComponent -->
<g id="node7" class="node">
<title>SimpleusersComponent</title>
<polygon fill="#ffffb3" stroke="black" points="801.77,-84.8 652.23,-84.8 652.23,-48.8 801.77,-48.8 801.77,-84.8"/>
<text text-anchor="middle" x="727" y="-62.6" font-family="Times,serif" font-size="14.00">SimpleusersComponent</text>
</g>
<!-- SimpleusersComponent&#45;&gt;AppModule -->
<g id="edge7" class="edge">
<title>SimpleusersComponent&#45;&gt;AppModule</title>
<path fill="none" stroke="black" d="M786.03,-84.91C786.03,-84.91 786.03,-103.79 786.03,-103.79"/>
<polygon fill="black" stroke="black" points="782.53,-103.79 786.03,-113.79 789.53,-103.79 782.53,-103.79"/>
</g>
<!-- UtilisateurComponent -->
<g id="node8" class="node">
<title>UtilisateurComponent</title>
<polygon fill="#ffffb3" stroke="black" points="634.43,-84.8 493.57,-84.8 493.57,-48.8 634.43,-48.8 634.43,-84.8"/>
<text text-anchor="middle" x="564" y="-62.6" font-family="Times,serif" font-size="14.00">UtilisateurComponent</text>
</g>
<!-- UtilisateurComponent&#45;&gt;AppModule -->
<g id="edge8" class="edge">
<title>UtilisateurComponent&#45;&gt;AppModule</title>
<path fill="none" stroke="black" d="M564,-85.04C564,-100.37 564,-119.8 564,-119.8 564,-119.8 760.21,-119.8 760.21,-119.8"/>
<polygon fill="black" stroke="black" points="760.21,-123.3 770.21,-119.8 760.21,-116.3 760.21,-123.3"/>
</g>
<!-- AppComponent  -->
<g id="node13" class="node">
<title>AppComponent </title>
<polygon fill="#80b1d3" stroke="black" points="866.44,-214.8 757.56,-214.8 757.56,-178.8 866.44,-178.8 866.44,-214.8"/>
<text text-anchor="middle" x="812" y="-192.6" font-family="Times,serif" font-size="14.00">AppComponent </text>
</g>
<!-- AppModule&#45;&gt;AppComponent  -->
<g id="edge12" class="edge">
<title>AppModule&#45;&gt;AppComponent </title>
<path fill="none" stroke="black" stroke-dasharray="1,5" d="M812,-149.91C812,-149.91 812,-168.79 812,-168.79"/>
<polygon fill="black" stroke="black" points="808.5,-168.79 812,-178.79 815.5,-168.79 808.5,-168.79"/>
</g>
<!-- AppRoutingModule -->
<g id="node10" class="node">
<title>AppRoutingModule</title>
<polygon fill="#8dd3c7" stroke="black" points="470.28,-84.8 467.28,-88.8 446.28,-88.8 443.28,-84.8 341.72,-84.8 341.72,-48.8 470.28,-48.8 470.28,-84.8"/>
<text text-anchor="middle" x="406" y="-62.6" font-family="Times,serif" font-size="14.00">AppRoutingModule</text>
</g>
<!-- AppRoutingModule&#45;&gt;AppModule -->
<g id="edge9" class="edge">
<title>AppRoutingModule&#45;&gt;AppModule</title>
<path fill="none" stroke="black" d="M406,-84.82C406,-102.17 406,-125.8 406,-125.8 406,-125.8 760.08,-125.8 760.08,-125.8"/>
<polygon fill="black" stroke="black" points="760.08,-129.3 770.08,-125.8 760.08,-122.3 760.08,-129.3"/>
</g>
<!-- NgClass -->
<g id="node11" class="node">
<title>NgClass</title>
<polygon fill="#8dd3c7" stroke="black" points="323.95,-84.8 320.95,-88.8 299.95,-88.8 296.95,-84.8 260.05,-84.8 260.05,-48.8 323.95,-48.8 323.95,-84.8"/>
<text text-anchor="middle" x="292" y="-62.6" font-family="Times,serif" font-size="14.00">NgClass</text>
</g>
<!-- NgClass&#45;&gt;AppModule -->
<g id="edge10" class="edge">
<title>NgClass&#45;&gt;AppModule</title>
<path fill="none" stroke="black" d="M292,-84.91C292,-104.14 292,-131.8 292,-131.8 292,-131.8 760.33,-131.8 760.33,-131.8"/>
<polygon fill="black" stroke="black" points="760.33,-135.3 770.33,-131.8 760.33,-128.3 760.33,-135.3"/>
</g>
<!-- NgStyle -->
<g id="node12" class="node">
<title>NgStyle</title>
<polygon fill="#8dd3c7" stroke="black" points="241.89,-84.8 238.89,-88.8 217.89,-88.8 214.89,-84.8 180.11,-84.8 180.11,-48.8 241.89,-48.8 241.89,-84.8"/>
<text text-anchor="middle" x="211" y="-62.6" font-family="Times,serif" font-size="14.00">NgStyle</text>
</g>
<!-- NgStyle&#45;&gt;AppModule -->
<g id="edge11" class="edge">
<title>NgStyle&#45;&gt;AppModule</title>
<path fill="none" stroke="black" d="M211,-85.08C211,-106.12 211,-137.8 211,-137.8 211,-137.8 760.22,-137.8 760.22,-137.8"/>
<polygon fill="black" stroke="black" points="760.22,-141.3 770.22,-137.8 760.22,-134.3 760.22,-141.3"/>
</g>
<!-- HelperService -->
<g id="node14" class="node">
<title>HelperService</title>
<ellipse fill="#fdb462" stroke="black" cx="90" cy="-66.8" rx="66.03" ry="18"/>
<text text-anchor="middle" x="90" y="-62.6" font-family="Times,serif" font-size="14.00">HelperService</text>
</g>
<!-- HelperService&#45;&gt;AppModule -->
<g id="edge13" class="edge">
<title>HelperService&#45;&gt;AppModule</title>
<path fill="none" stroke="black" d="M90,-85.05C90,-107.82 90,-143.8 90,-143.8 90,-143.8 760.33,-143.8 760.33,-143.8"/>
<polygon fill="black" stroke="black" points="760.33,-147.3 770.33,-143.8 760.33,-140.3 760.33,-147.3"/>
</g>
</g>
</svg>
