<?xml version="1.0" encoding="UTF-8" standalone="no"?>
<!DOCTYPE svg PUBLIC "-//W3C//DTD SVG 1.1//EN"
 "http://www.w3.org/Graphics/SVG/1.1/DTD/svg11.dtd">
<!-- Generated by graphviz version 5.0.0 (20220707.1540)
 -->
<!-- Title: dependencies Pages: 1 -->
<svg width="1861pt" height="247pt"
 viewBox="0.00 0.00 1861.00 246.80" xmlns="http://www.w3.org/2000/svg" xmlns:xlink="http://www.w3.org/1999/xlink">
<g id="graph0" class="graph" transform="scale(1 1) rotate(0) translate(4 242.8)">
<title>dependencies</title>
<polygon fill="white" stroke="transparent" points="-4,4 -4,-242.8 1857,-242.8 1857,4 -4,4"/>
<text text-anchor="middle" x="926.5" y="-8.2" font-family="sans-serif" font-size="14.00">dependencies</text>
<g id="clust1" class="cluster">
<title>cluster_AppModule</title>
<polygon fill="none" stroke="black" stroke-dasharray="1,5" points="8,-32.8 8,-230.8 1845,-230.8 1845,-32.8 8,-32.8"/>
</g>
<g id="clust2" class="cluster">
<title>cluster_AppModule_declarations</title>
<polygon fill="none" stroke="black" points="486,-40.8 486,-92.8 1837,-92.8 1837,-40.8 486,-40.8"/>
</g>
<g id="clust12" class="cluster">
<title>cluster_AppModule_imports</title>
<polygon fill="none" stroke="black" points="172,-40.8 172,-92.8 478,-92.8 478,-40.8 172,-40.8"/>
</g>
<g id="clust14" class="cluster">
<title>cluster_AppModule_bootstrap</title>
<polygon fill="none" stroke="black" points="814,-170.8 814,-222.8 938,-222.8 938,-170.8 814,-170.8"/>
</g>
<g id="clust15" class="cluster">
<title>cluster_AppModule_providers</title>
<polygon fill="none" stroke="black" points="16,-40.8 16,-92.8 164,-92.8 164,-40.8 16,-40.8"/>
</g>
<!-- AppComponent -->
<g id="node1" class="node">
<title>AppComponent</title>
<polygon fill="#ffffb3" stroke="black" points="1828.94,-84.8 1723.06,-84.8 1723.06,-48.8 1828.94,-48.8 1828.94,-84.8"/>
<text text-anchor="middle" x="1776" y="-62.6" font-family="Times,serif" font-size="14.00">AppComponent</text>
</g>
<!-- AppModule -->
<g id="node10" class="node">
<title>AppModule</title>
<polygon fill="#8dd3c7" stroke="black" points="917.66,-149.8 914.66,-153.8 893.66,-153.8 890.66,-149.8 834.34,-149.8 834.34,-113.8 917.66,-113.8 917.66,-149.8"/>
<text text-anchor="middle" x="876" y="-127.6" font-family="Times,serif" font-size="14.00">AppModule</text>
</g>
<!-- AppComponent&#45;&gt;AppModule -->
<g id="edge1" class="edge">
<title>AppComponent&#45;&gt;AppModule</title>
<path fill="none" stroke="black" d="M1776,-84.89C1776,-107.93 1776,-144.8 1776,-144.8 1776,-144.8 927.9,-144.8 927.9,-144.8"/>
<polygon fill="black" stroke="black" points="927.9,-141.3 917.9,-144.8 927.9,-148.3 927.9,-141.3"/>
</g>
<!-- HeaderComponent -->
<g id="node2" class="node">
<title>HeaderComponent</title>
<polygon fill="#ffffb3" stroke="black" points="1704.75,-84.8 1583.25,-84.8 1583.25,-48.8 1704.75,-48.8 1704.75,-84.8"/>
<text text-anchor="middle" x="1644" y="-62.6" font-family="Times,serif" font-size="14.00">HeaderComponent</text>
</g>
<!-- HeaderComponent&#45;&gt;AppModule -->
<g id="edge2" class="edge">
<title>HeaderComponent&#45;&gt;AppModule</title>
<path fill="none" stroke="black" d="M1644,-84.84C1644,-106.46 1644,-139.8 1644,-139.8 1644,-139.8 927.84,-139.8 927.84,-139.8"/>
<polygon fill="black" stroke="black" points="927.84,-136.3 917.84,-139.8 927.84,-143.3 927.84,-136.3"/>
</g>
<!-- InscrptionComponent -->
<g id="node3" class="node">
<title>InscrptionComponent</title>
<polygon fill="#ffffb3" stroke="black" points="1565.1,-84.8 1426.9,-84.8 1426.9,-48.8 1565.1,-48.8 1565.1,-84.8"/>
<text text-anchor="middle" x="1496" y="-62.6" font-family="Times,serif" font-size="14.00">InscrptionComponent</text>
</g>
<!-- InscrptionComponent&#45;&gt;AppModule -->
<g id="edge3" class="edge">
<title>InscrptionComponent&#45;&gt;AppModule</title>
<path fill="none" stroke="black" d="M1496,-85.02C1496,-105.17 1496,-134.8 1496,-134.8 1496,-134.8 928.13,-134.8 928.13,-134.8"/>
<polygon fill="black" stroke="black" points="928.13,-131.3 918.13,-134.8 928.13,-138.3 928.13,-131.3"/>
</g>
<!-- LoginComponent -->
<g id="node4" class="node">
<title>LoginComponent</title>
<polygon fill="#ffffb3" stroke="black" points="1409.27,-84.8 1294.73,-84.8 1294.73,-48.8 1409.27,-48.8 1409.27,-84.8"/>
<text text-anchor="middle" x="1352" y="-62.6" font-family="Times,serif" font-size="14.00">LoginComponent</text>
</g>
<!-- LoginComponent&#45;&gt;AppModule -->
<g id="edge4" class="edge">
<title>LoginComponent&#45;&gt;AppModule</title>
<path fill="none" stroke="black" d="M1352,-85.02C1352,-103.63 1352,-129.8 1352,-129.8 1352,-129.8 927.82,-129.8 927.82,-129.8"/>
<polygon fill="black" stroke="black" points="927.82,-126.3 917.82,-129.8 927.82,-133.3 927.82,-126.3"/>
</g>
<!-- ModificationComponent -->
<g id="node5" class="node">
<title>ModificationComponent</title>
<polygon fill="#ffffb3" stroke="black" points="1276.43,-84.8 1121.57,-84.8 1121.57,-48.8 1276.43,-48.8 1276.43,-84.8"/>
<text text-anchor="middle" x="1199" y="-62.6" font-family="Times,serif" font-size="14.00">ModificationComponent</text>
</g>
<!-- ModificationComponent&#45;&gt;AppModule -->
<g id="edge5" class="edge">
<title>ModificationComponent&#45;&gt;AppModule</title>
<path fill="none" stroke="black" d="M1199,-84.83C1199,-101.86 1199,-124.8 1199,-124.8 1199,-124.8 927.9,-124.8 927.9,-124.8"/>
<polygon fill="black" stroke="black" points="927.9,-121.3 917.9,-124.8 927.9,-128.3 927.9,-121.3"/>
</g>
<!-- PageArchiveComponent -->
<g id="node6" class="node">
<title>PageArchiveComponent</title>
<polygon fill="#ffffb3" stroke="black" points="1103.64,-84.8 950.36,-84.8 950.36,-48.8 1103.64,-48.8 1103.64,-84.8"/>
<text text-anchor="middle" x="1027" y="-62.6" font-family="Times,serif" font-size="14.00">PageArchiveComponent</text>
</g>
<!-- PageArchiveComponent&#45;&gt;AppModule -->
<g id="edge6" class="edge">
<title>PageArchiveComponent&#45;&gt;AppModule</title>
<path fill="none" stroke="black" d="M1027,-85.04C1027,-100.37 1027,-119.8 1027,-119.8 1027,-119.8 928.06,-119.8 928.06,-119.8"/>
<polygon fill="black" stroke="black" points="928.06,-116.3 918.06,-119.8 928.06,-123.3 928.06,-116.3"/>
</g>
<!-- ProfilComponent -->
<g id="node7" class="node">
<title>ProfilComponent</title>
<polygon fill="#ffffb3" stroke="black" points="932.72,-84.8 819.28,-84.8 819.28,-48.8 932.72,-48.8 932.72,-84.8"/>
<text text-anchor="middle" x="876" y="-62.6" font-family="Times,serif" font-size="14.00">ProfilComponent</text>
</g>
<!-- ProfilComponent&#45;&gt;AppModule -->
<g id="edge7" class="edge">
<title>ProfilComponent&#45;&gt;AppModule</title>
<path fill="none" stroke="black" d="M876,-84.91C876,-84.91 876,-103.79 876,-103.79"/>
<polygon fill="black" stroke="black" points="872.5,-103.79 876,-113.79 879.5,-103.79 872.5,-103.79"/>
</g>
<!-- SimpleusersComponent -->
<g id="node8" class="node">
<title>SimpleusersComponent</title>
<polygon fill="#ffffb3" stroke="black" points="801.77,-84.8 652.23,-84.8 652.23,-48.8 801.77,-48.8 801.77,-84.8"/>
<text text-anchor="middle" x="727" y="-62.6" font-family="Times,serif" font-size="14.00">SimpleusersComponent</text>
</g>
<!-- SimpleusersComponent&#45;&gt;AppModule -->
<g id="edge8" class="edge">
<title>SimpleusersComponent&#45;&gt;AppModule</title>
<path fill="none" stroke="black" d="M727,-85.04C727,-100.37 727,-119.8 727,-119.8 727,-119.8 824.1,-119.8 824.1,-119.8"/>
<polygon fill="black" stroke="black" points="824.1,-123.3 834.1,-119.8 824.1,-116.3 824.1,-123.3"/>
</g>
<!-- UtilisateurComponent -->
<g id="node9" class="node">
<title>UtilisateurComponent</title>
<polygon fill="#ffffb3" stroke="black" points="634.43,-84.8 493.57,-84.8 493.57,-48.8 634.43,-48.8 634.43,-84.8"/>
<text text-anchor="middle" x="564" y="-62.6" font-family="Times,serif" font-size="14.00">UtilisateurComponent</text>
</g>
<!-- UtilisateurComponent&#45;&gt;AppModule -->
<g id="edge9" class="edge">
<title>UtilisateurComponent&#45;&gt;AppModule</title>
<path fill="none" stroke="black" d="M564,-84.83C564,-101.86 564,-124.8 564,-124.8 564,-124.8 824.25,-124.8 824.25,-124.8"/>
<polygon fill="black" stroke="black" points="824.25,-128.3 834.25,-124.8 824.25,-121.3 824.25,-128.3"/>
</g>
<!-- AppComponent  -->
<g id="node14" class="node">
<title>AppComponent </title>
<polygon fill="#80b1d3" stroke="black" points="930.44,-214.8 821.56,-214.8 821.56,-178.8 930.44,-178.8 930.44,-214.8"/>
<text text-anchor="middle" x="876" y="-192.6" font-family="Times,serif" font-size="14.00">AppComponent </text>
</g>
<!-- AppModule&#45;&gt;AppComponent  -->
<g id="edge13" class="edge">
<title>AppModule&#45;&gt;AppComponent </title>
<path fill="none" stroke="black" stroke-dasharray="1,5" d="M876,-149.91C876,-149.91 876,-168.79 876,-168.79"/>
<polygon fill="black" stroke="black" points="872.5,-168.79 876,-178.79 879.5,-168.79 872.5,-168.79"/>
</g>
<!-- AppRoutingModule -->
<g id="node11" class="node">
<title>AppRoutingModule</title>
<polygon fill="#8dd3c7" stroke="black" points="470.28,-84.8 467.28,-88.8 446.28,-88.8 443.28,-84.8 341.72,-84.8 341.72,-48.8 470.28,-48.8 470.28,-84.8"/>
<text text-anchor="middle" x="406" y="-62.6" font-family="Times,serif" font-size="14.00">AppRoutingModule</text>
</g>
<!-- AppRoutingModule&#45;&gt;AppModule -->
<g id="edge10" class="edge">
<title>AppRoutingModule&#45;&gt;AppModule</title>
<path fill="none" stroke="black" d="M406,-85.02C406,-103.63 406,-129.8 406,-129.8 406,-129.8 824.29,-129.8 824.29,-129.8"/>
<polygon fill="black" stroke="black" points="824.29,-133.3 834.29,-129.8 824.29,-126.3 824.29,-133.3"/>
</g>
<!-- NgClass -->
<g id="node12" class="node">
<title>NgClass</title>
<polygon fill="#8dd3c7" stroke="black" points="323.95,-84.8 320.95,-88.8 299.95,-88.8 296.95,-84.8 260.05,-84.8 260.05,-48.8 323.95,-48.8 323.95,-84.8"/>
<text text-anchor="middle" x="292" y="-62.6" font-family="Times,serif" font-size="14.00">NgClass</text>
</g>
<!-- NgClass&#45;&gt;AppModule -->
<g id="edge11" class="edge">
<title>NgClass&#45;&gt;AppModule</title>
<path fill="none" stroke="black" d="M292,-85.02C292,-105.17 292,-134.8 292,-134.8 292,-134.8 824,-134.8 824,-134.8"/>
<polygon fill="black" stroke="black" points="824,-138.3 834,-134.8 824,-131.3 824,-138.3"/>
</g>
<!-- NgStyle -->
<g id="node13" class="node">
<title>NgStyle</title>
<polygon fill="#8dd3c7" stroke="black" points="241.89,-84.8 238.89,-88.8 217.89,-88.8 214.89,-84.8 180.11,-84.8 180.11,-48.8 241.89,-48.8 241.89,-84.8"/>
<text text-anchor="middle" x="211" y="-62.6" font-family="Times,serif" font-size="14.00">NgStyle</text>
</g>
<!-- NgStyle&#45;&gt;AppModule -->
<g id="edge12" class="edge">
<title>NgStyle&#45;&gt;AppModule</title>
<path fill="none" stroke="black" d="M211,-84.84C211,-106.46 211,-139.8 211,-139.8 211,-139.8 824.15,-139.8 824.15,-139.8"/>
<polygon fill="black" stroke="black" points="824.15,-143.3 834.15,-139.8 824.15,-136.3 824.15,-143.3"/>
</g>
<!-- HelperService -->
<g id="node15" class="node">
<title>HelperService</title>
<ellipse fill="#fdb462" stroke="black" cx="90" cy="-66.8" rx="66.03" ry="18"/>
<text text-anchor="middle" x="90" y="-62.6" font-family="Times,serif" font-size="14.00">HelperService</text>
</g>
<!-- HelperService&#45;&gt;AppModule -->
<g id="edge14" class="edge">
<title>HelperService&#45;&gt;AppModule</title>
<path fill="none" stroke="black" d="M90,-84.89C90,-107.93 90,-144.8 90,-144.8 90,-144.8 824.3,-144.8 824.3,-144.8"/>
<polygon fill="black" stroke="black" points="824.3,-148.3 834.3,-144.8 824.3,-141.3 824.3,-148.3"/>
</g>
</g>
</svg>
